<?xml version="1.0" encoding="UTF-8"?>
<svg version="1.1" xmlns="http://www.w3.org/2000/svg" width="100" height="0" viewBox="0 0 650 650">
<path d="M0 0 C1.32 0 2.64 0 4 0 C3.39409165 3.2513033 2.31884707 5.19347605 0.26171875 7.765625 C-0.31255859 8.49265625 -0.88683594 9.2196875 -1.47851562 9.96875 C-2.08373047 10.7215625 -2.68894531 11.474375 -3.3125 12.25 C-10.05245663 20.71161795 -16.50160539 29.33547386 -23 38 C2.41 37.67 27.82 37.34 54 37 C49.38 31.06 44.76 25.12 40 19 C28 3.4 28 3.4 28 0 C32 0 32 0 33.48876953 1.35424805 C34.1788208 2.29844604 34.1788208 2.29844604 34.8828125 3.26171875 C35.40552734 3.96248535 35.92824219 4.66325195 36.46679688 5.38525391 C37.01400391 6.14499512 37.56121094 6.90473633 38.125 7.6875 C39.2835428 9.25153278 40.44240032 10.81533246 41.6015625 12.37890625 C42.17422852 13.16023926 42.74689453 13.94157227 43.33691406 14.74658203 C46.45970477 18.97784425 49.70253901 23.11488274 52.9609375 27.2421875 C54.67080705 29.55476969 55.85422677 31.69812204 57.125 34.25 C61.51497192 38.44910357 66.77171831 37.88920593 72.578125 37.9296875 C76 38 76 38 77 39 C77.09981214 41.6773138 77.13879875 44.32304175 77.125 47 C77.12886719 47.75023437 77.13273437 48.50046875 77.13671875 49.2734375 C77.12661053 54.87338947 77.12661053 54.87338947 76 56 C74.00041636 56.04080783 71.99954746 56.04254356 70 56 C69.76216797 57.93359375 69.76216797 57.93359375 69.51953125 59.90625 C68.09708273 71.26176431 66.55606183 82.60392333 64.87631226 93.92431641 C64.66819692 95.34232604 64.46535861 96.76112084 64.26797485 98.18066406 C63.98626205 100.19712217 63.68490328 102.20975866 63.37890625 104.22265625 C63.2094751 105.38547119 63.04004395 106.54828613 62.86547852 107.74633789 C61.45575039 113.04604077 58.7753737 117.22795899 54 120 C51.4372742 120.29476074 49.11817328 120.42057682 46.55688477 120.40405273 C45.4415184 120.41434761 45.4415184 120.41434761 44.30361938 120.42485046 C41.84935325 120.44312895 39.39572575 120.43927957 36.94140625 120.43359375 C35.23274019 120.43815519 33.52407598 120.44346065 31.81541443 120.44947815 C28.23518417 120.45841138 24.65517695 120.45598392 21.07495117 120.44604492 C16.4903663 120.43455703 11.90655186 120.45476246 7.32206821 120.48396206 C3.79354474 120.50232248 0.26520592 120.50203191 -3.26335335 120.49632454 C-4.95342146 120.49617129 -6.64350206 120.50221843 -8.3335247 120.51461601 C-10.69866909 120.52952116 -13.06238992 120.51885388 -15.42749023 120.50170898 C-16.4711097 120.51621094 -16.4711097 120.51621094 -17.53581238 120.53100586 C-22.28848139 120.4589879 -24.65170492 119.33600173 -28 116 C-31.69939364 110.53533998 -32.13940097 104.21211967 -33.04296875 97.8203125 C-33.21629227 96.6524118 -33.38961578 95.48451111 -33.56819153 94.28121948 C-34.11761831 90.5638239 -34.65273934 86.84453076 -35.1875 83.125 C-35.55830208 80.59881978 -35.93003628 78.07277619 -36.30273438 75.546875 C-37.21263067 69.36612591 -38.11080172 63.18375885 -39 57 C-40.98 56.67 -42.96 56.34 -45 56 C-45 50.06 -45 44.12 -45 38 C-42.6075 38.144375 -40.215 38.28875 -37.75 38.4375 C-32.85146233 38.35386643 -29.22066982 37.71578676 -25.6875 34.15625 C-23.03816395 31.00349257 -20.73010447 27.62404953 -18.46630859 24.1875 C-16.47056929 21.2101733 -14.31245533 18.37028483 -12.14355469 15.51782227 C-10.64285655 13.54323165 -9.16576726 11.55287991 -7.69140625 9.55859375 C-6.79530964 8.37161089 -5.89820273 7.18538994 -5 6 C-4.5654248 5.40719238 -4.13084961 4.81438477 -3.68310547 4.20361328 C-2.40234375 2.53515625 -2.40234375 2.53515625 0 0 Z M-41 42 C-41 45.3 -41 48.6 -41 52 C-3.38 52 34.24 52 73 52 C73 48.7 73 45.4 73 42 C35.38 42 -2.24 42 -41 42 Z M-34 56 C-33.38988278 63.32140658 -32.75575966 70.49894202 -31.6953125 77.74609375 C-31.5706662 78.60509781 -31.4460199 79.46410187 -31.31759644 80.34913635 C-31.05580483 82.13988759 -30.79188925 83.93032957 -30.52587891 85.72045898 C-30.12245039 88.45478054 -29.73501095 91.19109543 -29.34765625 93.92773438 C-29.08951978 95.67983189 -28.83043917 97.43179061 -28.5703125 99.18359375 C-28.45769073 99.99509384 -28.34506897 100.80659393 -28.22903442 101.64268494 C-27.3358631 107.47404901 -25.67853449 112.10122125 -21 116 C-17.62865184 117.12378272 -15.05080523 117.1406752 -11.49658203 117.16113281 C-10.84093262 117.16609772 -10.1852832 117.17106262 -9.50976562 117.17617798 C-7.34243721 117.19077353 -5.17518197 117.19759706 -3.0078125 117.203125 C-1.49950153 117.20887842 0.00880942 117.21463613 1.51712036 117.22039795 C4.67954855 117.23090039 7.84195136 117.23674806 11.00439453 117.24023438 C15.05190449 117.24571881 19.09907801 117.26974863 23.14648247 117.29820633 C26.26234917 117.31685148 29.37813511 117.32203929 32.49405289 117.32357025 C33.98596156 117.32659288 35.47786894 117.33460828 36.96972275 117.34775543 C39.05933829 117.36485658 41.14813538 117.36292641 43.23779297 117.35644531 C44.42565399 117.36009094 45.61351501 117.36373657 46.83737183 117.36749268 C51.14525946 116.86692256 53.75768418 115.29483763 56.73242188 112.19433594 C58.33004074 109.42865828 58.77276979 107.0437652 59.28125 103.890625 C59.48363281 102.65828125 59.68601562 101.4259375 59.89453125 100.15625 C60.09433594 98.8671875 60.29414062 97.578125 60.5 96.25 C60.69980469 95.03828125 60.89960937 93.8265625 61.10546875 92.578125 C63.06226209 80.41360079 64.46957993 68.24336057 66 56 C33 56 0 56 -34 56 Z " fill="#C4D0DD" transform="translate(53,12)"/>
<path d="M0 0 C17.82 0 35.64 0 54 0 C54 2.97 54 5.94 54 9 C39.81 9 25.62 9 11 9 C11 16.26 11 23.52 11 31 C24.2 31 37.4 31 51 31 C51 34.3 51 37.6 51 41 C37.8 41 24.6 41 11 41 C11 48.59 11 56.18 11 64 C25.52 64 40.04 64 55 64 C55 67.3 55 70.6 55 74 C36.85 74 18.7 74 0 74 C0 49.58 0 25.16 0 0 Z " fill="#DEE5E9" transform="translate(157,35)"/>
<path d="M0 0 C3.3 0 6.6 0 10 0 C10 24.42 10 48.84 10 74 C7.03 74 4.06 74 1 74 C0.67 72.35 0.34 70.7 0 69 C-0.94875 69.804375 -1.8975 70.60875 -2.875 71.4375 C-8.39039757 76.11359794 -13.95817307 75.56962023 -21 75 C-26.85313392 73.52022218 -30.43573694 70.1148601 -33.74609375 65.171875 C-39.1787642 55.76201591 -39.50661674 44.45727907 -37.37890625 33.92578125 C-35.22603595 27.67767321 -31.45617236 23.64098661 -26 20 C-20.04394829 17.14605855 -14.36550232 17.17207419 -8.25 19.3125 C-5 21 -5 21 -1 24 C-0.67 16.08 -0.34 8.16 0 0 Z M-25.25 32.4375 C-29.35716846 38.4515681 -28.4315524 45.99315828 -28 53 C-26.91733586 58.49856984 -24.55907455 62.65667866 -20 66 C-15.15454509 67.35037268 -12.27775019 67.44230018 -7.6875 65.375 C-3.70616061 63.11110113 -1.79696887 60.60569255 -0.44921875 56.19921875 C1.12685163 48.48332639 0.64699832 40.04894141 -3 33 C-5.6333388 29.83999344 -7.10637681 28.2978744 -11 27 C-17.56594388 26.51363379 -20.79710813 27.61353381 -25.25 32.4375 Z " fill="#E4EAEC" transform="translate(400,35)"/>
<path d="M0 0 C5.025679 5.62397412 5.14230896 11.45636958 5.31640625 18.70703125 C5.33718735 19.43242599 5.35796844 20.15782074 5.37937927 20.90519714 C5.44442215 23.20754113 5.50354773 25.50999282 5.5625 27.8125 C5.60572835 29.37956814 5.64934398 30.94662565 5.69335938 32.51367188 C5.80005668 36.34233936 5.90144969 40.1711145 6 44 C7.32 44.33 8.64 44.66 10 45 C10 47.31 10 49.62 10 52 C6.39854108 53.80072946 2.42547996 53.41263894 -1.375 52.3125 C-3.62884143 50.49208962 -3.54149195 48.78251455 -4 46 C-4.92232422 46.63228516 -4.92232422 46.63228516 -5.86328125 47.27734375 C-6.67152344 47.82519531 -7.47976563 48.37304688 -8.3125 48.9375 C-9.11300781 49.48277344 -9.91351563 50.02804688 -10.73828125 50.58984375 C-16.53863469 54.206299 -23.40312309 53.53548493 -30 53 C-33.83545619 51.8373576 -36.21273668 49.89223177 -38.875 46.875 C-41.08751128 41.2208045 -41.57050803 36.04711706 -39.9375 30.1875 C-37.06498442 25.46174856 -34.0900323 22.70436138 -28.8125 20.92578125 C-24.09173343 19.77944756 -19.43443603 19.26452472 -14.609375 18.7890625 C-11.0200063 18.39477579 -9.06331685 18.04221123 -6 16 C-5.46556508 12.48799911 -5.55226044 10.69026516 -7.5 7.6875 C-12.14789167 4.55017313 -16.50382383 4.75472522 -21.8125 5.625 C-25.51196912 7.22084942 -26.40496191 8.36685767 -28 12 C-28.33 12.99 -28.66 13.98 -29 15 C-31.97 15 -34.94 15 -38 15 C-37.68666164 8.10655618 -37.09183703 4.75238123 -32 0 C-22.03612 -6.01984416 -10.13502146 -5.45344698 0 0 Z M-15.8125 26.8125 C-16.72837891 26.97814453 -17.64425781 27.14378906 -18.58789062 27.31445312 C-19.47283203 27.48525391 -20.35777344 27.65605469 -21.26953125 27.83203125 C-22.48539917 28.05983276 -22.48539917 28.05983276 -23.72583008 28.29223633 C-26.35347777 29.11000881 -27.97221534 30.14783472 -30 32 C-31.00917654 35.31586579 -31.15374823 37.38500707 -30.3125 40.75 C-28.71795002 43.48351425 -28.03558225 44.12127882 -25 45 C-18.69066219 45.63093378 -14.2192236 44.69502556 -9 41 C-5.46522817 37.28848958 -4.77810885 34.60026725 -4.75 29.625 C-4.81370629 28.08239763 -4.89043304 26.54002456 -5 25 C-8.57404949 25 -12.3145509 26.14402467 -15.8125 26.8125 Z " fill="#DAE2E7" transform="translate(516,57)"/>
<path d="M0 0 C7.66936902 8.08392951 8.3125 16.68561961 8.3125 27.4375 C-4.5575 27.4375 -17.4275 27.4375 -30.6875 27.4375 C-29.22662999 35.19806851 -29.22662999 35.19806851 -24.6875 41.5625 C-18.93713153 43.2396908 -13.97402839 44.38775938 -8.3125 41.875 C-4.63847703 39.78915031 -3.14309526 37.44038697 -1.6875 33.4375 C1.6125 33.4375 4.9125 33.4375 8.3125 33.4375 C6.17462422 40.86380533 3.79524665 46.51682646 -3 50.8125 C-9.80416077 53.89705288 -19.14094471 53.59120547 -26.2890625 51.77734375 C-32.59555536 48.96498883 -37.02577221 43.72271885 -39.5625 37.375 C-42.23475717 28.05391248 -41.75080198 17.26943184 -37.6875 8.4375 C-33.88199128 1.6089236 -29.16612485 -1.94922905 -21.7109375 -4.14453125 C-13.64428985 -5.81080789 -6.99135496 -4.06474125 0 0 Z M-26.9375 9.6875 C-29.18967188 12.93879395 -29.18967188 12.93879395 -30.6875 19.4375 C-21.1175 19.4375 -11.5475 19.4375 -1.6875 19.4375 C-2.30882128 12.95846278 -2.30882128 12.95846278 -5.5625 8.5625 C-6.07554687 7.98757812 -6.58859375 7.41265625 -7.1171875 6.8203125 C-9.59688107 4.63670175 -11.75325775 4.43253715 -15 4.1875 C-20.20428192 4.54033267 -23.25764372 6.00764372 -26.9375 9.6875 Z " fill="#DFE6E9" transform="translate(459.6875,57.5625)"/>
<path d="M0 0 C6.45723215 5.62905007 9.93500277 12.48002213 11 21 C11 23.64 11 26.28 11 29 C-1.87 29 -14.74 29 -28 29 C-25.87465616 38.30744679 -25.87465616 38.30744679 -20 44 C-15.17300931 45.28343064 -11.29971426 45.4489922 -6.5625 43.8125 C-2.95023046 41.25748008 -1.39332696 39.17998089 0 35 C3.3 35 6.6 35 10 35 C9.39312224 41.37221647 6.82194644 45.56708444 2.0625 49.75 C-5.06798269 54.98872198 -12.49183704 54.71504774 -21 54 C-27.19451872 52.41336714 -31.60074524 48.3244964 -35 43 C-37.79493091 37.58315771 -38.51842373 33.24843084 -38.4375 27.1875 C-38.42992676 26.39432373 -38.42235352 25.60114746 -38.41455078 24.78393555 C-38.16476167 15.87630988 -35.71632873 8.9776504 -29.57421875 2.40234375 C-21.9169764 -4.41887214 -8.72534748 -5.31339898 0 0 Z M-25.3125 12.375 C-27.46271215 15.3397544 -27.46271215 15.3397544 -28 21 C-18.43 21 -8.86 21 1 21 C-0.63392458 13.3779551 -0.63392458 13.3779551 -5 8 C-12.97002374 3.47647301 -19.34477589 6.24598605 -25.3125 12.375 Z " fill="#E1E7EA" transform="translate(310,56)"/>
<path d="M0 0 C3.96 0 7.92 0 12 0 C16.29 13.2 20.58 26.4 25 40 C29.01301259 29.10753725 33.01317879 18.24708224 36.765625 7.26953125 C37.04664063 6.45613281 37.32765625 5.64273438 37.6171875 4.8046875 C37.86065918 4.09296387 38.10413086 3.38124023 38.35498047 2.64794922 C39 1 39 1 40 0 C41.68608966 -0.07205511 43.37500659 -0.08386068 45.0625 -0.0625 C45.98160156 -0.05347656 46.90070313 -0.04445312 47.84765625 -0.03515625 C48.55792969 -0.02355469 49.26820313 -0.01195312 50 0 C49.35635301 5.98076277 47.15735085 11.26856095 45 16.83203125 C44.60425781 17.864384 44.20851563 18.89673676 43.80078125 19.96037292 C42.96621972 22.13403589 42.12892151 24.30664986 41.2890625 26.47827148 C39.99874436 29.81574778 38.71744997 33.15658239 37.4375 36.49804688 C36.62552605 38.60957736 35.81304385 40.72091249 35 42.83203125 C34.42185547 44.33815727 34.42185547 44.33815727 33.83203125 45.87471008 C33.47496094 46.79624374 33.11789063 47.7177774 32.75 48.66723633 C32.27820313 49.88918449 32.27820313 49.88918449 31.796875 51.13581848 C31 53 31 53 30 54 C26.66672158 54.1424478 23.33546107 54.04222103 20 54 C15.65643397 44.02986529 11.93190223 33.84821668 8.21411133 23.63256836 C7.17537926 20.77920473 6.13192738 17.92759829 5.08789062 15.07617188 C4.42680919 13.26572508 3.76599184 11.45518183 3.10546875 9.64453125 C2.79304733 8.79051224 2.48062592 7.93649323 2.15873718 7.05659485 C0 1.11575471 0 1.11575471 0 0 Z " fill="#DEE5E9" transform="translate(217,55)"/>
<path d="M0 0 C3.3 0 6.6 0 10 0 C10 24.42 10 48.84 10 74 C6.7 74 3.4 74 0 74 C0 49.58 0 25.16 0 0 Z " fill="#EDF1F1" transform="translate(535,35)"/>
<path d="M0 0 C0 3.63 0 7.26 0 11 C-2.0728125 11.12375 -2.0728125 11.12375 -4.1875 11.25 C-8.54651316 11.73661939 -10.9185645 12.73181083 -14 16 C-16.57193894 19.77764206 -16.34766134 23.85767639 -16.4140625 28.265625 C-16.43342865 29.05902283 -16.4527948 29.85242065 -16.4727478 30.66986084 C-16.53238361 33.19646557 -16.57886443 35.72311625 -16.625 38.25 C-16.66319455 39.96616537 -16.70224715 41.68231187 -16.7421875 43.3984375 C-16.83807186 47.59880456 -16.92216167 51.79926134 -17 56 C-20.3 56 -23.6 56 -27 56 C-27 38.18 -27 20.36 -27 2 C-24.03 2 -21.06 2 -18 2 C-17.67 3.98 -17.34 5.96 -17 8 C-16.29875 7.236875 -15.5975 6.47375 -14.875 5.6875 C-10.17896712 1.29773013 -6.45621727 -0.46115838 0 0 Z " fill="#E7ECEE" transform="translate(359,53)"/>
<path d="M0 0 C0.99 0.33 1.98 0.66 3 1 C4.32 14.53 5.64 28.06 7 42 C5.02 42.495 5.02 42.495 3 43 C1.67483196 35.27455229 0.67485607 27.5453305 -0.125 19.75 C-0.21249512 18.92338867 -0.29999023 18.09677734 -0.39013672 17.24511719 C-0.92945128 11.8042254 -1.16210598 6.46837494 -1 1 C-0.67 0.67 -0.34 0.34 0 0 Z " fill="#CAD5DE" transform="translate(42,75)"/>
<path d="M0 0 C0.99 0.33 1.98 0.66 3 1 C1.94730428 15.03876369 0.80551695 29.03605505 -1 43 C-2.32 43 -3.64 43 -5 43 C-4.55836611 33.37703008 -3.96978711 23.77882091 -3.0625 14.1875 C-2.95059326 12.92631348 -2.95059326 12.92631348 -2.83642578 11.63964844 C-2.41929308 7.43078798 -1.87079538 3.8590047 0 0 Z " fill="#C9D4DE" transform="translate(94,75)"/>
<path d="M0 0 C0.99 0.33 1.98 0.66 3 1 C1.23275766 15.04133705 -0.70241727 29.03525955 -3 43 C-4.32 43 -5.64 43 -7 43 C-6.38352519 34.27143605 -5.34584279 25.65421493 -4.0625 17 C-3.89298828 15.79988281 -3.72347656 14.59976563 -3.54882812 13.36328125 C-3.37931641 12.21214844 -3.20980469 11.06101562 -3.03515625 9.875 C-2.8844165 8.84117188 -2.73367676 7.80734375 -2.57836914 6.7421875 C-2.03688385 4.17487522 -1.29721627 2.26462606 0 0 Z " fill="#C4D0DB" transform="translate(107,75)"/>
<path d="M0 0 C0.99 0.33 1.98 0.66 3 1 C3 14.86 3 28.72 3 43 C1.68 43 0.36 43 -1 43 C-1.02464574 37.03686834 -1.042834 31.07376605 -1.05493164 25.1105957 C-1.05997278 23.08031702 -1.06680557 21.05004198 -1.07543945 19.01977539 C-1.08751467 16.10822653 -1.09323034 13.1967255 -1.09765625 10.28515625 C-1.10281754 9.3716188 -1.10797882 8.45808136 -1.11329651 7.51686096 C-1.11349168 5.34424573 -1.06211805 3.17172704 -1 1 C-0.67 0.67 -0.34 0.34 0 0 Z " fill="#E9EDEE" transform="translate(68,75)"/>
<path d="M0 0 C1.32 0.33 2.64 0.66 4 1 C4.71987111 5.55203602 5.43164123 10.10524146 6.13623047 14.65966797 C6.37656996 16.20590581 6.61904381 17.75181358 6.86376953 19.29736328 C7.21701209 21.53072134 7.56232745 23.76519004 7.90625 26 C8.07030334 27.02081665 8.07030334 27.02081665 8.2376709 28.06225586 C8.95212184 32.77331951 9.09273092 37.25217693 9 42 C7.68 41.67 6.36 41.34 5 41 C4.28133709 36.28702395 3.56949682 31.57308472 2.86376953 26.8581543 C2.62309812 25.25663948 2.38061317 23.65539605 2.13623047 22.05444336 C1.78387974 19.7440293 1.43821233 17.43269545 1.09375 15.12109375 C0.92969666 14.0597245 0.92969666 14.0597245 0.7623291 12.97691345 C0.11606899 8.58575807 -0.1010026 4.42138883 0 0 Z " fill="#C6D2DD" transform="translate(28,76)"/>
<path d="M0 0 C1.32 0 2.64 0 4 0 C3.34 13.86 2.68 27.72 2 42 C0.68 42 -0.64 42 -2 42 C-2.12134963 33.85609123 -1.96070221 25.7582991 -1.5625 17.625 C-1.52326416 16.79387695 -1.48402832 15.96275391 -1.44360352 15.10644531 C-1.17918201 10.02914635 -0.68903353 5.03747204 0 0 Z " fill="#CDD8E1" transform="translate(80,76)"/>
<path d="M0 0 C1.32 0 2.64 0 4 0 C4.66 13.53 5.32 27.06 6 41 C4.02 41.495 4.02 41.495 2 42 C1.12033111 36.50022137 0.69862768 31.06142979 0.4375 25.5 C0.3950415 24.63084961 0.35258301 23.76169922 0.30883789 22.86621094 C-0.03868297 15.23893209 -0.10410039 7.63402888 0 0 Z " fill="#D0DAE2" transform="translate(54,76)"/>
</svg>
